<svg width="804" height="690" viewBox="0 0 804 690" fill="none" xmlns="http://www.w3.org/2000/svg">
<path d="M336.191 19.9634C322.588 58.1355 361.009 75.9228 397.956 95.5592M397.956 95.5592H407.515M397.956 95.5592C391.544 101.387 386.96 106.909 383.263 112.4M468.544 19.9634C479.941 47.2827 457.882 70.8596 407.515 95.5592M407.515 95.5592C413.247 101.509 417.456 107.01 420.919 112.4M307.147 46.5342C307.147 90.6942 340.31 110.399 361.559 151.321C371.247 136.527 375.089 124.54 383.263 112.4M496.485 46.5342C496.485 95.5592 463.323 110.399 442.074 151.321C432.803 136.303 428.785 124.64 420.919 112.4M383.263 112.4V687.228M420.919 112.4V687.228M204.206 88.4487C216.31 149.104 223.476 205.559 227.643 260.972M204.206 88.4487C144.647 130.738 96.8529 365.01 21.8529 518.821C15.9706 536.036 15.6029 541.275 21.8529 552.503M204.206 88.4487C265.235 61.1294 311.926 57.3871 323.324 22.2088C329.206 12.1044 336.191 2 353.838 2H448.691C468.544 2 473.324 11.7302 480.309 22.2088C499.059 67.4915 552.684 62.5804 599.059 88.4487M599.059 88.4487C646.853 118.388 649.426 186.873 676.632 243.383L782.515 517.324C787.294 531.92 786.191 539.404 783.618 552.503M599.059 88.4487C588.712 154.45 581.745 211.889 577.167 266.211M86.5588 580.196L68.1765 627.35L2 599.656L21.8529 552.503M86.5588 580.196L21.8529 552.503M86.5588 580.196C96.8529 581.693 106.412 573.46 107.882 566.724L227.643 260.972M783.618 552.503L802 599.656L737.294 627.35L717.441 580.196M783.618 552.503L717.441 580.196M717.441 580.196C696.853 573.834 695.75 564.104 687.662 545.392L577.167 266.211M227.643 260.972C236.637 380.607 231.645 495.384 232.147 637.08C306.779 710.805 514.5 698.081 571.118 637.08C568.591 489.954 567.106 385.61 577.167 266.211" stroke="black" stroke-width="3" stroke-linejoin="round"/>
</svg>
