<svg width="674" height="796" viewBox="0 0 674 796" fill="none" xmlns="http://www.w3.org/2000/svg">
<path opacity="0.9" d="M66.4116 108.595C27.4116 113.595 -32.5884 472.595 27.4116 716.595M66.4116 108.595C114.795 84.9976 145.665 74.2008 209.412 60.5948M66.4116 108.595C105.809 158.6 129.134 215.861 142.12 278.095M603.411 108.595C702.411 294.595 672.411 698.595 644.411 708.595M603.411 108.595C566.912 78.5948 495.912 73.0948 433.912 57.0948M603.411 108.595C556.579 163.526 534.793 228.624 526.221 301.095M27.4116 716.595H123.412M27.4116 716.595V767.595H123.412V716.595M644.411 708.595H551.412M644.411 708.595V758.595H551.412V708.595M123.412 716.595L130.912 476.595C138.995 467.465 142.787 462.392 137.412 454.095C124.23 447.484 122.343 441.157 137.412 421.095L142.12 278.095M551.412 708.595L536.912 484.095C542.421 473.057 542.09 467.296 536.912 457.595C551.148 445.414 550.564 437.339 533.412 420.595L526.221 301.095M433.912 57.0948L360.912 144.595L339.215 114.595M433.912 57.0948L396.912 18.5948M320.412 88.5948L396.912 18.5948M320.412 88.5948L250.412 18.5948M320.412 88.5948L307.376 108.595M320.412 88.5948L339.215 114.595M396.912 18.5948C339.7 -0.614168 307.623 -6.26912 250.412 18.5948M209.412 60.5948L283.912 144.595L307.376 108.595M209.412 60.5948L250.412 18.5948M526.221 301.095C510.449 434.437 539.411 592.738 539.411 758.595C463.386 786.976 413.622 795.688 307.376 793.595M142.12 278.095C171.983 421.213 147.169 590.633 137.412 758.595C198.713 785.689 237.66 788.767 307.376 793.595M307.376 108.595V114.595M307.376 793.595V114.595M307.376 114.595H339.215" stroke="black" stroke-width="3" stroke-linejoin="round"/>
</svg>
