<svg width="673" height="801" viewBox="0 0 673 801" fill="none" xmlns="http://www.w3.org/2000/svg">
<path d="M604 108C683 201 685 688 645 709M604 108C550.942 77.5144 509.194 68.6251 430 56M604 108C600.057 113.571 596.287 119.238 592.682 125M66.0002 108C-11 208 -11.9999 698 29.0002 716M66.0002 108C130.46 78.6431 171.21 68.1389 249 56M66.0002 108C69.6161 113.638 73.0949 119.305 76.4412 125M29.0002 716H124M29.0002 716C23.9338 729.426 25.516 744.324 29.0002 772H124V716M645 709C608.68 702.211 588.317 702.446 552 709M645 709C648.021 729.308 647.435 740.693 645 761H552V709M552 709L534.5 491C545.611 479.542 546.077 473.789 534.5 465C554.654 451.378 553.13 441.971 534.5 423L530.234 309.5M124 716L135 481.5C143.533 472.201 146.794 467.067 141.388 458.5C125.795 451.083 127.7 439.587 141.388 412V303.5M430 56L417 17M430 56C420.268 71.5078 405.365 80.253 366 89.8299M249 56C266.741 87.1815 283.172 92.6896 316 96M249 56L256 17M76.4412 125C139.777 90.5515 179.201 78.4728 256 69M76.4412 125C109.689 181.584 129.851 240.981 141.388 303.5M417 69C493.795 86.6793 531.973 99.0877 592.682 125M592.682 125C559.128 178.642 539.964 240.53 530.234 309.5M316 96C321 44 282 69 256 17M316 96V132M338 96C333 47 387 69 417 17M338 96C348.514 93.8612 357.789 91.8275 366 89.8299M338 96C325.249 106.658 320.81 114.852 316 132M417 17C352.896 -1.45382 317.39 -5.23831 256 17M316 798.353C262.561 795.479 207.673 783.028 140 761C150.638 591.452 166.582 440.03 141.388 303.5M316 798.353C325.023 798.838 334.005 799.051 343 798.99M316 798.353V132M366 89.8299C353.374 102.066 348.425 109.8 343 125V798.99M343 798.99C403.268 798.583 464.13 785.92 542 761C526.71 590.95 512.114 437.944 530.234 309.5M380 255H516V348L446 381L380 348V255Z" stroke="black" stroke-width="3" stroke-linecap="round" stroke-linejoin="round"/>
</svg>
