<svg width="666" height="799" viewBox="0 0 666 799" fill="none" xmlns="http://www.w3.org/2000/svg">
<path d="M63 110C16 183 15.0356 267.032 2 373L132 388L136.391 288M63 110C100.549 164.238 123.472 222.464 136.391 288M63 110C121.134 78.9119 158.1 69.7087 226 57M603 110C643.124 208.62 654.792 264.293 664 364L538 382L533.605 269M603 110C566.715 155.765 545.283 208.369 533.605 269M603 110C552.907 79.4373 513.9 69.4241 436 57M136.391 288C160.631 410.96 149.656 559.651 134 756C201.323 779.847 256.119 793.039 309 796.279M533.605 269C509.558 393.845 526.865 552.722 541 756C449.382 786.67 380.964 800.689 309 796.279M436 57L382 147C382.461 121.963 378.026 102.785 368.748 89M436 57C434.588 22.3629 429.888 7.66535 416 3.39767M226 57L283 147C281.126 119.174 282.823 102.065 288.74 89M226 57C226.092 28.4233 229.993 14.6696 246.5 5.7779M309 64C299.773 71.9183 293.107 79.3576 288.74 89M309 64V96.5M309 64L246.5 5.7779M347 70C338.616 80.0398 332.419 88.2293 327.01 96.5M347 70C355.964 74.4819 363.217 80.7824 368.748 89M347 70L416 3.39767M309 796.279V129M309 129V96.5M309 129C315.42 115.986 320.675 106.187 327.01 96.5M288.74 89L309 96.5M327.01 96.5L368.748 89M416 3.39767C412.585 2.3482 408.614 1.92945 404 2C344.554 10.8162 311.758 11.9977 255 2C251.85 3.16916 249.027 4.41654 246.5 5.7779M377 252H509V349L441 382L377 349V252Z" stroke="black" stroke-width="3" stroke-linecap="round" stroke-linejoin="round"/>
</svg>
