<svg width="546" height="1409" viewBox="0 0 546 1409" fill="none" xmlns="http://www.w3.org/2000/svg">
<path d="M46.9733 4L515.817 4M46.9733 4C78.2197 6.93804 107.119 9.34308 134.474 11.2309M46.9733 4C29.9999 11.2309 16.9999 -7.5 14.4999 23C8.72947 52 16.3162 353.953 14.4999 372.5M283.973 490.5C242.502 481.93 240.35 841.899 231.973 1405.5H142.723M283.973 490.5C306.447 588.36 313.013 939.209 327.973 1405.5H417.223M283.973 490.5V16.4871M515.817 4C484.571 6.75842 454.828 9.07597 427.473 10.9369M515.817 4C526 10.9369 533 2 543.817 8M134.474 72.5C98.5947 71.3536 39.4181 72.5 12.4181 72.5C12.4184 454.5 -8.35624 789.63 14.4997 1405.5H142.723M427.473 72.5C469.785 71.4904 509.325 67.5641 542.089 60C543.817 368 543.214 750.123 527.474 1405.5H417.223M150.973 72.5C253.793 83.9972 309.704 83.4939 406.973 72.5M283.973 16.4871C241.002 16.6366 198.133 15.2757 150.973 12.3183M283.973 16.4871C323.727 16.3488 363.567 14.9179 406.973 12.2627M134.474 11.2309V83.5H142.723M134.474 11.2309C140.035 11.6147 145.533 11.9771 150.973 12.3183M150.973 12.3183V83.5H142.723M406.973 12.2627V83.5H417.223M406.973 12.2627C413.716 11.8502 420.545 11.4082 427.473 10.9369M427.473 10.9369V83.5H417.223M417.223 83.5V1405.5M142.723 83.5V1405.5M538.5 2C546.881 21.5 537.975 261 540 280.5" stroke="black" stroke-width="6" stroke-linejoin="round"/>
</svg>
