<svg width="684" height="807" viewBox="0 0 684 807" fill="none" xmlns="http://www.w3.org/2000/svg">
<path d="M608 112C707 301 684 696 649 709M608 112C566.242 88.4141 526.777 77.8331 444 61M608 112C603.729 117.525 599.666 123.193 595.801 129M72 112C21 153 -25 514 32 720M72 112C131.204 79.5577 168.778 71.8562 237 61M72 112C75.8639 117.593 79.559 123.26 83.0918 129M32 720C68.1731 714.727 89.1619 714.605 128 720M32 720C30.2004 743.698 32.0331 755.1 39 773H128V720M649 709C610.366 704.941 589.442 705.558 554 714M649 709C653.212 728.452 652.826 741.191 649 766H554V714M319 68C277.265 37.7031 257.048 21.7992 255 5M319 68C291.363 73.3901 286.397 94.106 290 152C264.925 120.764 247.844 96.5378 239.49 76M319 68V129M319 800.511C387.86 803.919 455.751 790.417 547 761C533.392 591.514 518.253 437.333 534.482 311M319 800.511C265.14 797.845 210.687 784.834 144 761C149.79 597.595 165.513 444.123 145.639 311.5M319 800.511V129M255 5C317.879 19.9263 353.121 19.4241 416 5M255 5C232.817 27.3816 228.243 48.347 239.49 76M416 5C444.994 19.7382 449.954 40.1923 434.457 76M416 5C415.54 19.2843 400.994 35.5088 355 76M554 714L542 487.5C544.428 479.32 545.039 474.547 542 465C559.878 459.979 559.682 451.736 539.5 426.5L534.482 311M128 720L143 487C148.499 476.821 149.751 471.318 143 462.5C132.999 449.652 131.447 442.194 143 428L145.639 311.5M434.457 76C425.806 95.9896 410.779 120.764 390 152C389.98 106.101 387.816 82.9256 355 76M434.457 76C505.81 88.7862 540.171 101.303 595.801 129M595.801 129C562.043 179.724 543.461 241.099 534.482 311M83.0918 129C133.458 100.63 169.934 90.6246 239.49 76M83.0918 129C116.736 183.666 135.668 244.959 145.639 311.5M355 76C338.934 92.8117 331.425 105.142 319 129M390 259L518 254V354L449 382L390 354V259Z" stroke="black" stroke-width="10" stroke-linecap="round" stroke-linejoin="round"/>
</svg>
