<svg width="1096" height="924" viewBox="0 0 1096 924" fill="none" xmlns="http://www.w3.org/2000/svg">
<rect width="1096" height="924" fill="white"/>
<path d="M573.731 918.857C475.688 924.014 370.861 904.269 317 852C316.317 662.686 323.107 509.339 310.874 349.5L148 758C146 767 133 778 119 776L94 839L4 802L31 739C22.5 724 23 717 31 694C133 488.5 198 175.5 279 119C362 82.5 425.5 77.5 441 30.5C449 17 458.5 3.5 482.5 3.5H611.5C638.5 3.5 645 16.5 654.5 30.5C680 91 752.93 84.4386 816 119C881 159 884.5 250.5 921.5 326L1065.5 692C1072 711.5 1070.5 721.5 1067 739L1092 802L1004 839L977 776C949 767.5 947.5 754.5 936.5 729.5L786.227 356.5C772.544 516.022 774.563 655.432 778 852C741.86 890.252 660.449 914.296 573.731 918.857Z" fill="#FF0000"/>
<path d="M458.5 27.5C440 78.5 492.252 102.265 542.5 128.5M542.5 128.5H555.5M542.5 128.5C533.78 136.286 527.546 143.664 522.518 151M638.5 27.5C654 64 624 95.5 555.5 128.5M555.5 128.5C563.296 136.449 569.02 143.799 573.731 151M419 63C419 122 464.101 148.327 493 203C506.176 183.236 511.401 167.22 522.518 151M676.5 63C676.5 128.5 631.399 148.327 602.5 203C589.892 182.936 584.428 167.354 573.731 151M522.518 151V919M573.731 151V919M279 119C295.461 200.039 305.208 275.466 310.874 349.5M279 119C198 175.5 133 488.5 31 694C23 717 22.5 724 31 739M279 119C362 82.5 425.5 77.5 441 30.5C449 17 458.5 3.5 482.5 3.5H611.5C638.5 3.5 645 16.5 654.5 30.5C680 91 752.93 84.4386 816 119M816 119C881 159 884.5 250.5 921.5 326L1065.5 692C1072 711.5 1070.5 721.5 1067 739M816 119C801.929 207.181 792.453 283.922 786.227 356.5M119 776L94 839L4 802L31 739M119 776L31 739M119 776C133 778 146 767 148 758L310.874 349.5M1067 739L1092 802L1004 839L977 776M1067 739L977 776M977 776C949 767.5 947.5 754.5 936.5 729.5L786.227 356.5M310.874 349.5C323.107 509.339 316.317 662.686 317 852C418.5 950.5 701 933.5 778 852C774.563 655.432 772.544 516.022 786.227 356.5" stroke="black" stroke-width="7" stroke-linejoin="round"/>
<circle cx="548" cy="780" r="12" fill="white" stroke="black" stroke-width="4"/>
<circle cx="548" cy="653" r="12" fill="white" stroke="black" stroke-width="4"/>
<circle cx="548" cy="529" r="12" fill="white" stroke="black" stroke-width="4"/>
<circle cx="548" cy="405" r="12" fill="white" stroke="black" stroke-width="4"/>
<circle cx="548" cy="284" r="12" fill="white" stroke="black" stroke-width="4"/>
<circle cx="548" cy="163" r="12" fill="white" stroke="black" stroke-width="4"/>
</svg>
